<svg width="24" height="24" viewBox="0 0 24 24" fill="none" xmlns="http://www.w3.org/2000/svg">
<path fill-rule="evenodd" clip-rule="evenodd" d="M4 3C4.55228 3 5 3.44772 5 4V17C5 18.1046 5.89543 19 7 19H20C20.5523 19 21 19.4477 21 20C21 20.5523 20.5523 21 20 21H7C4.79086 21 3 19.2091 3 17V4C3 3.44772 3.44772 3 4 3Z" fill="#535353"/>
<path fill-rule="evenodd" clip-rule="evenodd" d="M20.3165 3.05158C20.8405 3.22623 21.1236 3.79255 20.949 4.31649L18.9723 10.2465C18.2671 12.3622 15.5819 12.996 14.0049 11.4191L12.5814 9.99562C12.0558 9.46997 11.1607 9.68126 10.9256 10.3865L8.94895 16.3165C8.7743 16.8404 8.20798 17.1236 7.68404 16.9489C7.1601 16.7743 6.87694 16.2079 7.05158 15.684L9.02825 9.75404C9.73348 7.63834 12.4187 7.00446 13.9956 8.58141L15.4192 10.0049C15.9448 10.5305 16.8399 10.3192 17.0749 9.61404L19.0516 3.68404C19.2263 3.1601 19.7926 2.87694 20.3165 3.05158Z" fill="#535353"/>
</svg>
