<svg width="24" height="24" viewBox="0 0 24 24" fill="none" xmlns="http://www.w3.org/2000/svg">
<path d="M5.64865 10.4817C6.39865 9.64172 7.02865 8.70172 7.50865 7.69172C7.68865 7.30172 7.85865 6.91172 7.99865 6.51172C8.33865 5.53172 8.18865 4.43172 7.58865 3.58172C7.00865 2.75172 6.11865 2.27172 5.04865 2.26172C4.06865 2.27172 3.16865 2.75172 2.58865 3.58172C1.98865 4.44172 1.83865 5.54172 2.17865 6.52172C2.31865 6.92172 2.48865 7.32172 2.66865 7.70172C3.15865 8.72172 3.77865 9.66172 4.52865 10.4917C4.66865 10.6517 4.87865 10.7417 5.08865 10.7417C5.29865 10.7417 5.50865 10.6517 5.64865 10.4917V10.4817ZM4.01865 7.04172C3.84865 6.68172 3.70865 6.34172 3.58865 6.01172C3.40865 5.49172 3.48865 4.90172 3.80865 4.43172C4.10865 4.00172 4.55865 3.76172 5.10865 3.75172C5.59865 3.75172 6.05865 4.00172 6.35865 4.43172C6.67865 4.89172 6.76865 5.48172 6.57865 6.01172C6.46865 6.34172 6.32865 6.68172 6.14865 7.04172C5.84865 7.66172 5.48865 8.25172 5.07865 8.80172C4.66865 8.25172 4.30865 7.66172 4.00865 7.04172H4.01865Z" fill="#535353"/>
<path d="M20.2683 14.5934C19.6883 13.7634 18.7983 13.2834 17.7283 13.2734C16.7483 13.2834 15.8483 13.7634 15.2683 14.5934C14.6683 15.4534 14.5183 16.5534 14.8583 17.5334C14.9983 17.9334 15.1583 18.3334 15.3483 18.7134C15.8383 19.7234 16.4583 20.6634 17.2083 21.5034C17.3483 21.6634 17.5483 21.7534 17.7683 21.7534C17.9883 21.7534 18.1883 21.6634 18.3283 21.5034C19.0783 20.6634 19.7083 19.7234 20.1883 18.7134C20.3683 18.3334 20.5383 17.9334 20.6783 17.5334C21.0183 16.5534 20.8683 15.4534 20.2683 14.5934ZM19.2683 17.0334C19.1483 17.3634 19.0083 17.7034 18.8383 18.0634C18.5383 18.6834 18.1883 19.2734 17.7683 19.8234C17.3583 19.2734 16.9983 18.6834 16.6983 18.0634C16.5283 17.7034 16.3883 17.3634 16.2683 17.0334C16.0883 16.5034 16.1683 15.9134 16.4883 15.4534C16.7883 15.0234 17.2383 14.7834 17.7883 14.7734C18.2783 14.7734 18.7383 15.0234 19.0383 15.4534C19.3683 15.9134 19.4483 16.5034 19.2583 17.0334H19.2683Z" fill="#535353"/>
<path d="M12.4297 16.2505H7.59969C6.81969 16.2505 6.17969 15.6205 6.17969 14.8305C6.17969 14.1405 6.67969 13.5505 7.35969 13.4305L15.7397 12.0305C17.1497 11.7905 18.1797 10.5805 18.1797 9.15047C18.1797 7.54047 16.8697 6.23047 15.2597 6.23047H10.4297C10.0197 6.23047 9.67969 6.57047 9.67969 6.98047C9.67969 7.39047 10.0197 7.73047 10.4297 7.73047H15.2597C16.0397 7.73047 16.6797 8.36047 16.6797 9.15047C16.6797 9.84047 16.1797 10.4305 15.4997 10.5505L7.11969 11.9505C5.70969 12.1905 4.67969 13.4005 4.67969 14.8305C4.67969 16.4405 5.98969 17.7505 7.59969 17.7505H12.4297C12.8397 17.7505 13.1797 17.4105 13.1797 17.0005C13.1797 16.5905 12.8397 16.2505 12.4297 16.2505Z" fill="#535353"/>
</svg>
