<svg width="24" height="24" viewBox="0 0 24 24" fill="none" xmlns="http://www.w3.org/2000/svg">
<path d="M18.0181 8.69C18.8481 8.69 19.6781 8.37 20.3181 7.74C20.9281 7.13 21.2681 6.31 21.2681 5.44C21.2681 4.57 20.9281 3.76 20.3181 3.14C19.0481 1.87 16.9881 1.87 15.7181 3.14C14.4481 4.41 14.4481 6.47 15.7181 7.74C16.3481 8.37 17.1881 8.69 18.0181 8.69ZM16.7781 4.2C17.1181 3.86 17.5681 3.69 18.0181 3.69C18.4681 3.69 18.9181 3.86 19.2581 4.2C19.5881 4.53 19.7681 4.97 19.7681 5.44C19.7681 5.91 19.5881 6.35 19.2581 6.68C18.5781 7.36 17.4681 7.36 16.7781 6.68C16.0981 6 16.0981 4.89 16.7781 4.2Z" fill="#535353"/>
<path d="M21.3792 9.86081C21.0892 9.57081 20.6092 9.57081 20.3192 9.86081L18.1992 11.9808C18.0992 12.0808 17.9392 12.0808 17.8492 11.9808L13.6092 7.74081L12.6292 6.76081C12.1592 6.29081 11.4692 6.13081 10.8392 6.34081L7.17922 7.56081C6.78922 7.69081 6.57922 8.12081 6.70922 8.51081C6.83922 8.90081 7.26922 9.12081 7.65922 8.98081L11.3192 7.76081C11.4092 7.73081 11.5092 7.76081 11.5792 7.82081L12.0292 8.27081L9.01922 11.2808C7.94922 12.3508 7.94922 14.1008 9.01922 15.1708L9.89922 16.0508L5.47922 20.4708C5.18922 20.7608 5.18922 21.2408 5.47922 21.5308C5.62922 21.6808 5.81922 21.7508 6.00922 21.7508C6.19922 21.7508 6.38922 21.6808 6.53922 21.5308L10.9592 17.1108L11.8392 17.9908C12.0792 18.2308 12.2092 18.5408 12.2092 18.8708C12.2092 19.2008 12.0792 19.5208 11.8392 19.7508L11.1292 20.4608C10.8392 20.7508 10.8392 21.2308 11.1292 21.5208C11.2792 21.6708 11.4692 21.7408 11.6592 21.7408C11.8492 21.7408 12.0392 21.6708 12.1892 21.5208L12.8992 20.8108C13.9692 19.7408 13.9692 17.9908 12.8992 16.9208L12.0192 16.0408L15.9092 12.1508L16.7892 13.0308C17.1292 13.3708 17.5792 13.5408 18.0292 13.5408C18.4792 13.5408 18.9292 13.3708 19.2692 13.0308L21.3892 10.9108C21.6792 10.6208 21.6792 10.1408 21.3892 9.85081L21.3792 9.86081ZM10.9492 14.9908L10.0692 14.1108C9.57922 13.6208 9.57922 12.8308 10.0692 12.3408L13.0792 9.33081L14.8492 11.1008L10.9592 14.9908H10.9492Z" fill="#535353"/>
<path d="M5 11.75H7C7.41 11.75 7.75 11.41 7.75 11C7.75 10.59 7.41 10.25 7 10.25H5C4.59 10.25 4.25 10.59 4.25 11C4.25 11.41 4.59 11.75 5 11.75Z" fill="#535353"/>
<path d="M6.75 14C6.75 13.59 6.41 13.25 6 13.25H3C2.59 13.25 2.25 13.59 2.25 14C2.25 14.41 2.59 14.75 3 14.75H6C6.41 14.75 6.75 14.41 6.75 14Z" fill="#535353"/>
<path d="M6.75 17C6.75 16.59 6.41 16.25 6 16.25H5C4.59 16.25 4.25 16.59 4.25 17C4.25 17.41 4.59 17.75 5 17.75H6C6.41 17.75 6.75 17.41 6.75 17Z" fill="#535353"/>
</svg>
